<svg xmlns="http://www.w3.org/2000/svg" viewBox="0 0 512 510.09">
  
  <g>
    <path d="m507.67,202.63l-.02.03h0s-1.33,2.47-1.33,2.47l-.3.57-.04.07c-11.95,22.17-23.9,44.34-35.85,66.51-.59,1.09-.89,2.31-.89,3.54v95.4c0,45.92-29.39,86.67-72.96,101.21l-92.5,30.86h-.21c-8.24,2.74-16.94,5.01-25.71,6.58-.44.08-.89.12-1.34.12l-42.01.1v-.02c-8.28-1.43-16.47-3.54-24.46-6.12l-94.63-31.54c-43.57-14.51-72.96-55.29-72.96-101.22v-94.85c0-1.22-.3-2.42-.87-3.5L5.41,204.53l-.17-.32h.01c-6.95-12.85-7.34-29.04.93-42.84l22.26-37.11L63.46,59.39c.45-.84,1.2-1.47,2.1-1.77L222.11,5.47c21.89-7.29,45.57-7.29,67.47,0l155.46,51.82c1.83.61,3.35,1.9,4.25,3.61l30.48,57.88h0c.59.8,1.15,1.62,1.66,2.48l24.48,40.8c7.81,13.01,7.78,28.19,1.76,40.57Z" fill="#FFF2F2"/>
    <path class="cls-1" d="m256.01,131.07l-179.15-59.92L224.35,22c20.44-6.81,42.56-6.81,63,0l147.83,49.28-179.17,59.8Zm-63.4,112.04l43.34-72.21-158.33-52.78c-12.29-4.1-25.76.9-32.44,12l-22.46,37.46c-13.29,22.16-2.65,50.91,21.86,59.08l101.24,33.75c17.71,5.9,37.16-1.3,46.77-17.3h.02ZM76.52,71.04v.22l.34-.12-.34-.12v.02Zm159.4,422.16v-244.85l-9.17,15.26c-14.78,24.63-40.73,38.76-68.05,38.76-8.47,0-17.06-1.34-25.5-4.16l-76.61-25.52v90.82c0,42.88,27.44,80.96,68.13,94.51l88.37,29.45c7.45,2.41,15.1,4.38,22.83,5.72v.02Zm253.45-324.97l-22.87-38.12c-6.66-11.1-20.14-16.1-32.44-12l-158.31,52.76,43.34,72.21c9.6,16.02,29.05,23.21,46.77,17.3l101.98-33.99c24.13-8.05,34.61-36.36,21.52-58.18l.02.02Zm-136.39,134.16c-27.32,0-53.26-14.11-68.05-38.76l-9.17-15.26v244.73c8.41-1.47,16.74-3.63,24.63-6.26h.2l86.38-28.81c40.69-13.57,68.13-51.63,68.13-94.51v-90.84l-76.61,25.54c-8.45,2.83-17.04,4.16-25.5,4.16h0Z" fill="#39db7d"/>
  </g>
</svg>
